<svg width="1113" height="1426" viewBox="0 0 1113 1426" fill="none" xmlns="http://www.w3.org/2000/svg">
<path fill-rule="evenodd" clip-rule="evenodd" d="M763.8 0.0024699C763.8 0.0024699 676.206 136.347 752.095 275.844C828.039 415.344 894.615 525.268 879.388 642.554C879.388 642.554 917.935 452.324 1113 402.62C1113 402.62 1040.59 526.259 1080.28 700.678C1119.97 875.054 1030.04 1200.59 660.913 1285.15C660.913 1285.15 987.988 1127.68 753.191 871.886C753.191 871.886 747.365 997.688 626.452 1035.17C626.452 1035.17 816.833 741.883 536.51 469.205C536.51 469.205 600.751 658.402 385.818 820.123C170.886 981.845 277.205 1241.82 401.011 1277.73C401.011 1277.73 -274.169 1005.05 127.661 442.812C127.661 442.812 141.702 570.69 244.488 620.384C244.488 620.384 229.295 71.8641 763.738 0L763.8 0.0024699Z" fill="#FF73F1"/>
<path fill-rule="evenodd" clip-rule="evenodd" d="M763.8 0.0024699C763.8 0.0024699 676.206 136.347 752.095 275.844C828.039 415.344 894.615 525.268 879.388 642.554C879.388 642.554 917.935 452.324 1113 402.62C1113 402.62 1040.59 526.259 1080.28 700.678C1119.97 875.054 1030.04 1200.59 660.913 1285.15C660.913 1285.15 987.988 1127.68 753.191 871.886C753.191 871.886 747.365 997.688 626.452 1035.17C626.452 1035.17 816.833 741.883 536.51 469.205C536.51 469.205 600.751 658.402 385.818 820.123C170.886 981.845 277.205 1241.82 401.011 1277.73C401.011 1277.73 -274.169 1005.05 127.661 442.812C127.661 442.812 141.702 570.69 244.488 620.384C244.488 620.384 229.295 71.8641 763.738 0L763.8 0.0024699Z" fill="url(#paint0_linear_2_73)" fill-opacity="0.2"/>
<path d="M29.1931 1369.48C27.6917 1370.31 26.0652 1370.94 24.3554 1371.32C22.6872 1371.75 20.9357 1371.98 19.1006 1371.98C13.6376 1371.98 9.342 1370.46 6.17221 1367.4C3.0027 1364.35 1.41797 1360.2 1.41797 1354.97C1.41797 1349.75 3.00275 1345.63 6.17221 1342.62C9.34173 1339.58 13.6371 1338.04 19.1006 1338.04C20.9356 1338.04 22.6872 1338.24 24.3554 1338.62C26.0652 1339.02 27.6917 1339.62 29.1931 1340.45V1347.21C27.6291 1346.17 26.107 1345.38 24.6056 1344.88C23.1042 1344.37 21.4778 1344.12 19.7679 1344.12C16.7652 1344.12 14.3881 1345.1 12.6783 1347.04C10.9476 1348.94 10.0926 1351.59 10.0926 1354.97C10.0926 1358.37 10.9476 1361.04 12.6783 1362.98C14.3882 1364.87 16.7653 1365.81 19.7679 1365.81C21.4778 1365.81 23.1042 1365.56 24.6056 1365.06C26.1069 1364.56 27.6291 1363.79 29.1931 1362.72V1369.48Z" fill="black"/>
<path d="M54.0904 1353.47C53.3606 1353.13 52.6725 1352.92 52.0052 1352.8C51.3379 1352.63 50.6707 1352.55 50.0034 1352.55C47.939 1352.55 46.3543 1353.2 45.2492 1354.47C44.1857 1355.76 43.6644 1357.6 43.6644 1359.97V1371.32H35.8237V1346.79H43.6644V1350.8C44.6653 1349.19 45.7913 1348.02 47.0841 1347.29C48.4186 1346.58 50.0034 1346.21 51.8383 1346.21H52.6724C53.006 1346.21 53.4439 1346.27 54.0069 1346.38L54.0904 1353.47Z" fill="black"/>
<path d="M82.4702 1358.97V1361.22H64.1203C64.2871 1363.06 64.9127 1364.46 66.0387 1365.39C67.2065 1366.29 68.8121 1366.73 70.8764 1366.73C72.5446 1366.73 74.2336 1366.48 75.9643 1365.98C77.6742 1365.48 79.4675 1364.77 81.3024 1363.81V1369.81C79.4675 1370.54 77.5908 1371.07 75.7139 1371.4C73.879 1371.77 72.044 1371.98 70.2093 1371.98C65.7469 1371.98 62.2853 1370.86 59.7834 1368.56C57.3228 1366.29 56.1134 1363.12 56.1134 1359.06C56.1134 1355.05 57.302 1351.92 59.7 1349.63C62.1397 1347.36 65.4758 1346.21 69.709 1346.21C73.5875 1346.21 76.6736 1347.38 78.9674 1349.71C81.3029 1352.01 82.4706 1355.09 82.4706 1358.97L82.4702 1358.97ZM74.3797 1356.39C74.3797 1354.88 73.9209 1353.7 73.0451 1352.8C72.2111 1351.86 71.085 1351.38 69.7088 1351.38C68.1449 1351.38 66.8938 1351.84 65.9555 1352.72C64.9963 1353.55 64.4124 1354.78 64.2039 1356.39H74.3797Z" fill="black"/>
<path d="M99.3602 1360.31C97.7337 1360.31 96.5243 1360.6 95.6902 1361.14C94.8561 1361.7 94.439 1362.52 94.439 1363.56C94.439 1364.56 94.7727 1365.35 95.4399 1365.89C96.1072 1366.46 97.0247 1366.73 98.1924 1366.73C99.6937 1366.73 100.945 1366.21 101.946 1365.14C102.947 1364.1 103.447 1362.77 103.447 1361.14V1360.31L99.3602 1360.31ZM111.371 1357.3V1371.32H103.447V1367.65C102.384 1369.15 101.195 1370.27 99.8604 1370.98C98.5676 1371.65 96.9829 1371.98 95.1062 1371.98C92.5414 1371.98 90.4562 1371.23 88.8504 1369.73C87.2865 1368.23 86.515 1366.31 86.515 1363.98C86.515 1361.1 87.4742 1358.97 89.4343 1357.64C91.4361 1356.3 94.5431 1355.64 98.7761 1355.64H103.447V1354.97C103.447 1353.76 102.946 1352.86 101.946 1352.3C100.986 1351.69 99.4642 1351.38 97.3581 1351.38C95.6899 1351.38 94.126 1351.55 92.6872 1351.88C91.2276 1352.22 89.893 1352.72 88.6836 1353.38V1347.46C90.3518 1347.02 92.02 1346.71 93.6881 1346.54C95.398 1346.34 97.1078 1346.21 98.776 1346.21C103.217 1346.21 106.408 1347.09 108.368 1348.8C110.37 1350.53 111.371 1353.36 111.371 1357.3L111.371 1357.3Z" fill="black"/>
<path d="M127.198 1339.79V1346.79H135.288V1352.38H127.198V1362.81C127.198 1363.93 127.406 1364.71 127.865 1365.14C128.303 1365.54 129.2 1365.73 130.534 1365.73H134.621V1371.32H127.865C124.737 1371.32 122.548 1370.69 121.276 1369.4C119.983 1368.13 119.357 1365.94 119.357 1362.81V1352.38H115.437V1346.79H119.357V1339.79H127.198Z" fill="black"/>
<path d="M164.565 1358.97V1361.22H146.215C146.382 1363.06 147.007 1364.46 148.133 1365.39C149.301 1366.29 150.907 1366.73 152.971 1366.73C154.639 1366.73 156.328 1366.48 158.059 1365.98C159.769 1365.48 161.562 1364.77 163.397 1363.81V1369.81C161.562 1370.54 159.686 1371.07 157.809 1371.4C155.974 1371.77 154.139 1371.98 152.304 1371.98C147.842 1371.98 144.38 1370.86 141.878 1368.56C139.418 1366.29 138.208 1363.12 138.208 1359.06C138.208 1355.05 139.397 1351.92 141.795 1349.63C144.234 1347.36 147.571 1346.21 151.804 1346.21C155.682 1346.21 158.768 1347.38 161.062 1349.71C163.398 1352.01 164.565 1355.09 164.565 1358.97L164.565 1358.97ZM156.474 1356.39C156.474 1354.88 156.016 1353.7 155.14 1352.8C154.306 1351.86 153.18 1351.38 151.804 1351.38C150.24 1351.38 148.989 1351.84 148.05 1352.72C147.091 1353.55 146.507 1354.78 146.299 1356.39H156.474Z" fill="black"/>
<path d="M187.147 1350.38V1337.2H195.071V1371.32H187.147V1367.73C186.084 1369.19 184.895 1370.27 183.561 1370.98C182.268 1371.65 180.766 1371.98 179.057 1371.98C176.054 1371.98 173.573 1370.79 171.633 1368.4C169.673 1365.96 168.714 1362.85 168.714 1359.05C168.714 1355.28 169.673 1352.19 171.633 1349.8C173.573 1347.42 176.054 1346.21 179.057 1346.21C180.766 1346.21 182.268 1346.54 183.561 1347.21C184.895 1347.88 186.084 1348.94 187.147 1350.38V1350.38ZM181.976 1366.23C183.686 1366.23 184.979 1365.62 185.813 1364.39C186.689 1363.18 187.147 1361.39 187.147 1359.05C187.147 1356.72 186.689 1354.95 185.813 1353.72C184.979 1352.51 183.686 1351.88 181.976 1351.88C180.308 1351.88 179.015 1352.51 178.139 1353.72C177.305 1354.95 176.888 1356.72 176.888 1359.05C176.888 1361.39 177.305 1363.18 178.139 1364.39C179.015 1365.62 180.308 1366.23 181.976 1366.23Z" fill="black"/>
<path d="M231.27 1366.23C232.938 1366.23 234.21 1365.62 235.107 1364.39C235.983 1363.18 236.442 1361.39 236.442 1359.05C236.442 1356.72 235.983 1354.95 235.107 1353.72C234.21 1352.51 232.938 1351.88 231.27 1351.88C229.602 1351.88 228.288 1352.51 227.35 1353.72C226.453 1354.95 226.015 1356.72 226.015 1359.05C226.015 1361.39 226.453 1363.18 227.35 1364.39C228.288 1365.62 229.602 1366.23 231.27 1366.23V1366.23ZM226.015 1350.38C227.121 1348.94 228.309 1347.88 229.602 1347.21C230.937 1346.54 232.459 1346.21 234.19 1346.21C237.192 1346.21 239.653 1347.42 241.613 1349.8C243.552 1352.19 244.532 1355.28 244.532 1359.05C244.532 1362.85 243.552 1365.96 241.613 1368.4C239.653 1370.79 237.192 1371.98 234.19 1371.98C232.459 1371.98 230.937 1371.65 229.602 1370.98C228.309 1370.27 227.121 1369.19 226.015 1367.73V1371.32H218.175V1337.2H226.015V1350.38Z" fill="black"/>
<path d="M247.097 1346.79H254.938L261.527 1363.39L267.116 1346.79H274.956L264.614 1373.65C263.613 1376.36 262.403 1378.26 261.027 1379.32C259.63 1380.43 257.795 1380.99 255.523 1380.99H251.018V1375.82H253.437C254.772 1375.82 255.731 1375.59 256.357 1375.15C256.961 1374.76 257.441 1374.01 257.775 1372.9L258.025 1372.23L247.097 1346.79Z" fill="black"/>
<path d="M290.928 1338.62H300.104L307.61 1350.3L315.033 1338.62H324.292L311.78 1357.55V1371.32H303.356V1357.55L290.928 1338.62Z" fill="black"/>
<path d="M347.771 1365.39H334.592L332.507 1371.32H324.083L336.177 1338.62H346.186L358.364 1371.32H349.856L347.771 1365.39ZM336.678 1359.31H345.686L341.182 1346.29L336.678 1359.31Z" fill="black"/>
<path d="M362.618 1338.62H372.043L383.97 1361.06V1338.62H391.978V1371.32H382.553L370.625 1348.88V1371.32H362.618V1338.62Z" fill="black"/>
<path d="M408.659 1344.96V1364.98H411.662C415.102 1364.98 417.709 1364.12 419.502 1362.39C421.337 1360.68 422.255 1358.2 422.255 1354.97C422.255 1351.69 421.337 1349.21 419.502 1347.54C417.709 1345.83 415.103 1344.96 411.662 1344.96L408.659 1344.96ZM400.151 1338.62H409.076C414.018 1338.62 417.709 1339 420.169 1339.7C422.609 1340.37 424.694 1341.58 426.425 1343.29C427.968 1344.75 429.115 1346.44 429.845 1348.38C430.553 1350.34 430.929 1352.53 430.929 1354.97C430.929 1357.43 430.553 1359.62 429.845 1361.56C429.115 1363.52 427.968 1365.21 426.425 1366.65C424.694 1368.38 422.588 1369.61 420.086 1370.32C417.625 1370.98 413.955 1371.32 409.076 1371.32H400.151V1338.62Z" fill="black"/>
<path d="M437.372 1338.62H445.88V1371.32H437.372V1338.62Z" fill="black"/>
<path d="M481.662 1353.13C483.434 1353.13 484.686 1352.8 485.415 1352.13C486.187 1351.47 486.583 1350.38 486.583 1348.88C486.583 1347.38 486.187 1346.34 485.415 1345.71C484.686 1345.04 483.434 1344.71 481.662 1344.71H478.159V1353.13L481.662 1353.13ZM478.159 1358.97V1371.32H469.651V1338.62H482.579C486.854 1338.62 490.003 1339.35 492.004 1340.79C494.048 1342.25 495.09 1344.52 495.09 1347.63C495.09 1349.8 494.548 1351.59 493.506 1352.97C492.442 1354.36 490.858 1355.39 488.751 1356.05C489.919 1356.28 490.941 1356.87 491.838 1357.8C492.776 1358.76 493.714 1360.18 494.673 1362.06L499.261 1371.32H490.253L486.249 1363.23C485.457 1361.56 484.664 1360.45 483.83 1359.89C482.996 1359.28 481.87 1358.97 480.494 1358.97L478.159 1358.97Z" fill="black"/>
<path d="M526.952 1339.62V1346.54C525.159 1345.77 523.407 1345.19 521.698 1344.79C520.029 1344.35 518.403 1344.12 516.86 1344.12C514.858 1344.12 513.357 1344.42 512.356 1344.96C511.397 1345.52 510.938 1346.38 510.938 1347.54C510.938 1348.44 511.272 1349.13 511.939 1349.63C512.606 1350.09 513.774 1350.51 515.442 1350.88L519.029 1351.55C522.698 1352.28 525.284 1353.38 526.785 1354.88C528.328 1356.39 529.121 1358.51 529.121 1361.22C529.121 1364.85 528.036 1367.54 525.868 1369.31C523.741 1371.11 520.488 1371.98 516.109 1371.98C514.045 1371.98 511.96 1371.75 509.853 1371.32C507.789 1370.94 505.704 1370.38 503.598 1369.65V1362.47C505.704 1363.6 507.726 1364.43 509.686 1364.98C511.626 1365.54 513.481 1365.81 515.275 1365.81C517.11 1365.81 518.528 1365.52 519.529 1364.89C520.53 1364.29 521.03 1363.43 521.03 1362.31C521.03 1361.26 520.696 1360.45 520.029 1359.89C519.362 1359.35 518.027 1358.87 516.026 1358.47L512.773 1357.72C509.478 1357.01 507.101 1355.89 505.599 1354.38C504.098 1352.84 503.347 1350.76 503.347 1348.13C503.347 1344.92 504.369 1342.44 506.433 1340.7C508.539 1338.93 511.563 1338.04 515.525 1338.04C517.36 1338.04 519.215 1338.18 521.113 1338.45C522.99 1338.68 524.95 1339.08 526.952 1339.62L526.952 1339.62Z" fill="black"/>
<path d="M19.1008 1382.05V1387.23H14.7636C13.6375 1387.23 12.866 1387.43 12.4281 1387.81C11.9694 1388.21 11.7609 1388.89 11.7609 1389.9V1391.65H18.4335V1397.24H11.7609V1416.17H3.92022V1397.24H0V1391.65H3.92022V1389.9C3.92022 1387.23 4.67086 1385.27 6.17227 1383.97C7.67361 1382.7 9.96736 1382.05 13.0953 1382.05L19.1008 1382.05Z" fill="black"/>
<path d="M40.7033 1398.32C39.9735 1397.99 39.2854 1397.78 38.6181 1397.65C37.9509 1397.49 37.2836 1397.4 36.6163 1397.4C34.552 1397.4 32.9672 1398.05 31.8621 1399.32C30.7986 1400.61 30.2773 1402.45 30.2773 1404.82V1416.17H22.4366V1391.65H30.2773V1395.65C31.2782 1394.04 32.4042 1392.88 33.697 1392.15C35.0315 1391.44 36.6163 1391.06 38.4512 1391.06H39.2853C39.619 1391.06 40.0569 1391.12 40.6199 1391.23L40.7033 1398.32Z" fill="black"/>
<path d="M56.2171 1396.65C54.4864 1396.65 53.1519 1397.3 52.2135 1398.57C51.3169 1399.8 50.879 1401.57 50.879 1403.91C50.879 1406.24 51.3169 1408.06 52.2135 1409.33C53.1519 1410.56 54.4864 1411.16 56.2171 1411.16C57.927 1411.16 59.2407 1410.56 60.1374 1409.33C61.0757 1408.06 61.5553 1406.24 61.5553 1403.91C61.5553 1401.57 61.0757 1399.8 60.1374 1398.57C59.2407 1397.3 57.927 1396.65 56.2171 1396.65ZM56.2171 1391.06C60.4292 1391.06 63.7236 1392.21 66.0596 1394.48C68.4367 1396.78 69.6462 1399.9 69.6462 1403.91C69.6462 1407.97 68.4368 1411.14 66.0596 1413.42C63.7241 1415.71 60.4295 1416.84 56.2171 1416.84C51.9842 1416.84 48.6685 1415.71 46.2914 1413.42C43.8934 1411.14 42.7048 1407.97 42.7048 1403.91C42.7048 1399.9 43.8934 1396.78 46.2914 1394.48C48.6685 1392.21 51.984 1391.06 56.2171 1391.06Z" fill="black"/>
<path d="M98.1093 1395.73C99.1102 1394.19 100.278 1393.02 101.612 1392.23C102.989 1391.46 104.49 1391.06 106.116 1391.06C108.952 1391.06 111.079 1391.94 112.539 1393.65C114.04 1395.38 114.791 1397.9 114.791 1401.24V1416.17H106.867V1403.41C106.909 1403.2 106.95 1402.99 106.95 1402.82V1401.91C106.95 1400.2 106.7 1398.95 106.2 1398.15C105.699 1397.38 104.865 1396.99 103.697 1396.99C102.196 1396.99 101.028 1397.61 100.194 1398.82C99.4019 1400.05 99.0266 1401.82 99.0266 1404.16V1416.17H91.1027V1403.41C91.1027 1400.7 90.8524 1398.95 90.352 1398.15C89.8933 1397.38 89.1009 1396.99 87.9332 1396.99C86.4319 1396.99 85.2641 1397.61 84.4301 1398.82C83.596 1400.05 83.1789 1401.8 83.1789 1404.08V1416.17H75.3383V1391.65H83.1789V1395.23C84.1798 1393.86 85.285 1392.81 86.5152 1392.15C87.7246 1391.44 89.1217 1391.06 90.6856 1391.06C92.3538 1391.06 93.8135 1391.48 95.1063 1392.31C96.4408 1393.11 97.4417 1394.23 98.109 1395.73L98.1093 1395.73Z" fill="black"/>
<path d="M146.277 1384.64V1391.65H154.368V1397.24H146.277V1407.66C146.277 1408.79 146.486 1409.56 146.945 1410C147.383 1410.39 148.279 1410.58 149.614 1410.58H153.701V1416.17H146.945C143.817 1416.17 141.628 1415.54 140.355 1414.25C139.063 1412.98 138.437 1410.79 138.437 1407.66V1397.24H134.517V1391.65H138.437V1384.64H146.277Z" fill="black"/>
<path d="M183.811 1401.24V1416.17H175.887V1404.74C175.887 1402.64 175.825 1401.2 175.72 1400.4C175.658 1399.57 175.512 1398.97 175.303 1398.57C174.97 1398.07 174.511 1397.69 173.969 1397.4C173.468 1397.13 172.885 1396.98 172.217 1396.98C170.591 1396.98 169.319 1397.63 168.381 1398.9C167.421 1400.13 166.963 1401.86 166.963 1404.07V1416.17H159.122V1382.05H166.963V1395.23C168.172 1393.79 169.423 1392.73 170.716 1392.06C172.05 1391.4 173.51 1391.06 175.137 1391.06C177.972 1391.06 180.099 1391.94 181.559 1393.65C183.06 1395.38 183.811 1397.9 183.811 1401.24L183.811 1401.24Z" fill="black"/>
<path d="M215.569 1403.82V1406.08H197.219C197.386 1407.91 198.012 1409.31 199.138 1410.25C200.305 1411.14 201.911 1411.58 203.975 1411.58C205.643 1411.58 207.332 1411.33 209.063 1410.83C210.773 1410.33 212.566 1409.62 214.401 1408.66V1414.67C212.566 1415.4 210.69 1415.92 208.813 1416.25C206.978 1416.63 205.143 1416.84 203.308 1416.84C198.846 1416.84 195.384 1415.71 192.882 1413.42C190.422 1411.14 189.212 1407.97 189.212 1403.91C189.212 1399.9 190.401 1396.78 192.799 1394.48C195.238 1392.21 198.575 1391.06 202.808 1391.06C206.686 1391.06 209.772 1392.23 212.066 1394.57C214.402 1396.86 215.569 1399.95 215.569 1403.82L215.569 1403.82ZM207.478 1401.24C207.478 1399.74 207.02 1398.55 206.144 1397.65C205.31 1396.71 204.184 1396.23 202.808 1396.23C201.244 1396.23 199.993 1396.69 199.054 1397.57C198.095 1398.4 197.511 1399.63 197.303 1401.24H207.478Z" fill="black"/>
<path d="M237.401 1383.47H246.826L258.753 1405.91V1383.47H266.761V1416.17H257.336L245.408 1393.73V1416.17H237.401V1383.47Z" fill="black"/>
<path d="M286.278 1396.65C284.547 1396.65 283.213 1397.3 282.275 1398.57C281.378 1399.8 280.94 1401.57 280.94 1403.91C280.94 1406.24 281.378 1408.06 282.275 1409.33C283.213 1410.56 284.547 1411.16 286.278 1411.16C287.988 1411.16 289.302 1410.56 290.198 1409.33C291.137 1408.06 291.616 1406.24 291.616 1403.91C291.616 1401.57 291.137 1399.8 290.198 1398.57C289.302 1397.3 287.988 1396.65 286.278 1396.65ZM286.278 1391.06C290.49 1391.06 293.785 1392.21 296.121 1394.48C298.498 1396.78 299.707 1399.9 299.707 1403.91C299.707 1407.97 298.498 1411.14 296.121 1413.42C293.785 1415.71 290.49 1416.84 286.278 1416.84C282.045 1416.84 278.729 1415.71 276.352 1413.42C273.954 1411.14 272.766 1407.97 272.766 1403.91C272.766 1399.9 273.954 1396.78 276.352 1394.48C278.73 1392.21 282.045 1391.06 286.278 1391.06Z" fill="black"/>
<path d="M305.149 1406.58V1391.65H313.073V1394.07C313.073 1395.4 313.031 1397.07 312.99 1399.07V1403.07C312.99 1405.08 313.031 1406.53 313.157 1407.41C313.261 1408.24 313.428 1408.87 313.657 1409.25C313.991 1409.75 314.408 1410.14 314.908 1410.41C315.45 1410.71 316.076 1410.83 316.743 1410.83C318.349 1410.83 319.621 1410.23 320.58 1409C321.518 1407.72 321.998 1405.97 321.998 1403.74V1391.65H329.838V1416.17H321.998V1412.58C320.83 1414.04 319.579 1415.13 318.245 1415.84C316.91 1416.5 315.43 1416.84 313.824 1416.84C310.988 1416.84 308.819 1415.98 307.318 1414.25C305.858 1412.48 305.149 1409.91 305.149 1406.58L305.149 1406.58Z" fill="black"/>
<path d="M362.013 1401.24V1416.17H354.089V1404.74C354.089 1402.64 354.026 1401.2 353.922 1400.4C353.86 1399.57 353.714 1398.97 353.505 1398.57C353.171 1398.07 352.713 1397.69 352.17 1397.4C351.67 1397.13 351.086 1396.98 350.419 1396.98C348.792 1396.98 347.521 1397.63 346.582 1398.9C345.623 1400.13 345.164 1401.86 345.164 1404.07V1416.17H337.324V1391.65H345.164V1395.23C346.374 1393.79 347.625 1392.73 348.918 1392.06C350.252 1391.4 351.712 1391.06 353.338 1391.06C356.174 1391.06 358.301 1391.94 359.761 1393.65C361.262 1395.38 362.013 1397.9 362.013 1401.24L362.013 1401.24Z" fill="black"/>
<path d="M385.18 1383.47H399.192C403.363 1383.47 406.553 1384.39 408.784 1386.22C410.995 1388.06 412.121 1390.71 412.121 1394.15C412.121 1397.55 410.995 1400.2 408.784 1402.07C406.553 1403.91 403.363 1404.83 399.192 1404.83H393.687V1416.17H385.18V1383.47ZM393.687 1389.56V1398.74H398.275C399.943 1398.74 401.215 1398.36 402.112 1397.57C402.988 1396.73 403.446 1395.61 403.446 1394.15C403.446 1392.65 402.988 1391.52 402.112 1390.73C401.215 1389.96 399.943 1389.56 398.275 1389.56L393.687 1389.56Z" fill="black"/>
<path d="M435.975 1398.32C435.245 1397.99 434.557 1397.78 433.89 1397.65C433.223 1397.49 432.555 1397.4 431.888 1397.4C429.824 1397.4 428.239 1398.05 427.134 1399.32C426.071 1400.61 425.549 1402.45 425.549 1404.82V1416.17H417.709V1391.65H425.549V1395.65C426.55 1394.04 427.676 1392.88 428.969 1392.15C430.303 1391.44 431.888 1391.06 433.723 1391.06H434.557C434.891 1391.06 435.329 1391.12 435.892 1391.23L435.975 1398.32Z" fill="black"/>
<path d="M451.51 1396.65C449.779 1396.65 448.445 1397.3 447.506 1398.57C446.61 1399.8 446.172 1401.57 446.172 1403.91C446.172 1406.24 446.61 1408.06 447.506 1409.33C448.445 1410.56 449.779 1411.16 451.51 1411.16C453.22 1411.16 454.533 1410.56 455.43 1409.33C456.368 1408.06 456.848 1406.24 456.848 1403.91C456.848 1401.57 456.368 1399.8 455.43 1398.57C454.533 1397.3 453.22 1396.65 451.51 1396.65ZM451.51 1391.06C455.722 1391.06 459.016 1392.21 461.352 1394.48C463.729 1396.78 464.939 1399.9 464.939 1403.91C464.939 1407.97 463.729 1411.14 461.352 1413.42C459.017 1415.71 455.722 1416.84 451.51 1416.84C447.277 1416.84 443.961 1415.71 441.584 1413.42C439.186 1411.14 437.998 1407.97 437.998 1403.91C437.998 1399.9 439.186 1396.78 441.584 1394.48C443.961 1392.21 447.277 1391.06 451.51 1391.06Z" fill="black"/>
<path d="M470.632 1391.65H478.472V1415.75C478.472 1419.03 477.659 1421.53 476.053 1423.26C474.489 1424.97 472.237 1425.84 469.297 1425.84H465.377V1420.67H466.712C468.213 1420.67 469.235 1420.34 469.798 1419.67C470.34 1419 470.632 1417.69 470.632 1415.75L470.632 1391.65ZM470.632 1382.05H478.472V1388.48H470.632V1382.05Z" fill="black"/>
<path d="M510.522 1403.82V1406.08H492.172C492.339 1407.91 492.964 1409.31 494.09 1410.25C495.258 1411.14 496.863 1411.58 498.928 1411.58C500.596 1411.58 502.285 1411.33 504.016 1410.83C505.726 1410.33 507.519 1409.62 509.354 1408.66V1414.67C507.519 1415.4 505.642 1415.92 503.765 1416.25C501.93 1416.63 500.095 1416.84 498.261 1416.84C493.798 1416.84 490.337 1415.71 487.835 1413.42C485.374 1411.14 484.165 1407.97 484.165 1403.91C484.165 1399.9 485.353 1396.78 487.751 1394.48C490.191 1392.21 493.527 1391.06 497.76 1391.06C501.639 1391.06 504.725 1392.23 507.019 1394.57C509.354 1396.86 510.522 1399.95 510.522 1403.82L510.522 1403.82ZM502.431 1401.24C502.431 1399.74 501.972 1398.55 501.097 1397.65C500.262 1396.71 499.136 1396.23 497.76 1396.23C496.196 1396.23 494.945 1396.69 494.007 1397.57C493.048 1398.4 492.464 1399.63 492.255 1401.24H502.431Z" fill="black"/>
<path d="M536.274 1392.4V1398.82C535.21 1398.11 534.126 1397.57 533.021 1397.23C531.957 1396.86 530.852 1396.65 529.685 1396.65C527.516 1396.65 525.806 1397.3 524.597 1398.57C523.366 1399.86 522.762 1401.63 522.762 1403.91C522.762 1406.2 523.366 1407.97 524.597 1409.25C525.806 1410.54 527.516 1411.16 529.685 1411.16C530.894 1411.16 532.062 1411 533.188 1410.66C534.293 1410.29 535.315 1409.73 536.274 1409V1415.42C535.043 1415.88 533.792 1416.19 532.52 1416.42C531.228 1416.69 529.976 1416.84 528.767 1416.84C524.305 1416.84 520.843 1415.71 518.341 1413.42C515.839 1411.14 514.588 1407.97 514.588 1403.91C514.588 1399.86 515.839 1396.71 518.341 1394.48C520.843 1392.21 524.305 1391.06 528.767 1391.06C530.039 1391.06 531.29 1391.19 532.52 1391.4C533.792 1391.63 535.044 1391.96 536.274 1392.4L536.274 1392.4Z" fill="black"/>
<path d="M551.6 1384.64V1391.65H559.69V1397.24H551.6V1407.66C551.6 1408.79 551.808 1409.56 552.267 1410C552.705 1410.39 553.602 1410.58 554.936 1410.58H559.023V1416.17H552.267C549.139 1416.17 546.95 1415.54 545.678 1414.25C544.385 1412.98 543.759 1410.79 543.759 1407.66V1397.24H539.839V1391.65H543.759V1384.64H551.6Z" fill="black"/>
<defs>
<linearGradient id="paint0_linear_2_73" x1="556.5" y1="2.19386e-05" x2="981.5" y2="1091.5" gradientUnits="userSpaceOnUse">
<stop offset="0.150989" stop-opacity="0"/>
<stop offset="0.438818" stop-opacity="0"/>
<stop offset="0.746212" stop-color="#FF0000"/>
</linearGradient>
</defs>
</svg>
